<?xml version="1.0" encoding="iso-8859-1"?>
<!DOCTYPE svg PUBLIC "-//W3C//DTD SVG 1.1//EN" "http://www.w3.org/Graphics/SVG/1.1/DTD/svg11.dtd">
<svg 
 version="1.1" xmlns="http://www.w3.org/2000/svg" xmlns:xlink="http://www.w3.org/1999/xlink" x="0px" y="0px" width="512px"
	 height="512px" viewBox="0 0 512 512" style="enable-background:new 0 0 512 512;" xml:space="preserve"
><g id="afcae5a789ccd549f9c6e2a2f80c94d1"><g></g><g fill="#ffffff"><path style="display: inline; fill-rule: evenodd; clip-rule: evenodd;" d="M374.468,169.805c0,0,26.537,25.398,50.095,29.395
		c29.035,4.926,51.615-20.005,51.615-20.005s16.774-15.553,14.708-42.592c-1.941-25.358-27.691-55.5-27.691-55.5
		s-0.359-0.364-1.034-1.018c2.911-6.955,2.252-14.348-2.391-18.991c-5.127-5.129-13.602-5.397-21.136-1.369
		c-12.778-9.905-28.954-20.627-44.579-25.866c-32.038-10.747-50.586,14.068-50.586,14.068s-22.535,18.792-19.85,45.172
		c2.643,25.933,28.13,53.986,28.13,53.986l0.722,0.718L137.896,362.376l-13.342-13.341c-4.579,4.582-12.896,3.692-18.572-1.985
		c-5.677-5.673-6.563-13.988-1.984-18.572l-32.452-32.455l-20.556,20.556l26.685,26.688l-0.791,0.789
		c1.233,2.451,1.453,5.11,0.599,7.274c-0.559,2.842-2.076,5.74-4.495,8.164c-4.579,4.574-10.867,5.944-15.218,3.676l-0.292,0.288
		l-26.684-26.684L0.5,367.067l30.065,30.064c0.447-0.61,0.934-1.205,1.489-1.756c5.477-5.479,14.116-5.721,19.294-0.543
		s4.935,13.817-0.543,19.294c-0.551,0.556-1.146,1.039-1.757,1.489l17.806,17.805l-26.325,26.324l21.998,22.002L374.468,169.805z
		 M362.563,67.744c13.546-13.541,45.516-3.529,71.404,22.361c25.894,25.893,35.905,57.862,22.359,71.403
		c-13.541,13.542-45.51,3.533-71.403-22.36C359.034,113.259,349.022,81.29,362.563,67.744z M481.208,335.868l30.292,30.293
		l-30.064,30.064c-0.447-0.611-0.936-1.204-1.489-1.756c-5.479-5.478-14.117-5.721-19.294-0.542
		c-5.179,5.177-4.935,13.815,0.542,19.293c0.552,0.555,1.146,1.038,1.757,1.488l-17.805,17.806l26.323,26.325l-21.997,22.001
		L270.452,301.822l22.001-22.001l81.651,81.649l13.343-13.343c4.579,4.583,12.895,3.693,18.571-1.984
		c5.677-5.672,6.563-13.988,1.984-18.571l32.452-32.457l20.556,20.556l-26.684,26.689l0.791,0.789
		c-1.234,2.452-1.455,5.109-0.6,7.274c0.56,2.842,2.077,5.74,4.495,8.164c4.58,4.575,10.866,5.944,15.219,3.677l0.29,0.286
		L481.208,335.868z M35.823,178.288c0,0,22.579,24.931,51.615,20.005c23.558-3.996,50.094-29.395,50.094-29.395l82.015,82.016
		l22.002-22.001l-82.02-82.016l0.723-0.718c0,0,25.485-28.053,28.129-53.986c2.687-26.38-19.85-45.171-19.85-45.171
		s-18.548-24.815-50.585-14.069c-15.625,5.238-31.802,15.961-44.58,25.866c-7.533-4.028-16.009-3.761-21.135,1.369
		c-4.644,4.643-5.302,12.036-2.392,18.991c-0.675,0.655-1.034,1.018-1.034,1.018s-25.749,30.141-27.69,55.5
		C19.048,162.734,35.823,178.288,35.823,178.288z M78.033,89.199c25.889-25.89,57.858-35.902,71.403-22.361
		c13.542,13.546,3.529,45.516-22.359,71.404c-25.894,25.893-57.863,35.902-71.405,22.36
		C42.127,147.061,52.139,115.091,78.033,89.199z"></path></g></g></svg>